<?xml version="1.0" standalone="no"?>
<!DOCTYPE svg PUBLIC "-//W3C//DTD SVG 20010904//EN"
 "http://www.w3.org/TR/2001/REC-SVG-20010904/DTD/svg10.dtd">
<svg version="1.0" xmlns="http://www.w3.org/2000/svg"
 width="256.000000pt" height="256.000000pt" viewBox="0 0 256.000000 256.000000"
 preserveAspectRatio="xMidYMid meet">
<metadata>
Created by potrace 1.11, written by Peter Selinger 2001-2013
</metadata>
<g transform="translate(0.000000,256.000000) scale(0.100000,-0.100000)"
fill="#000000" stroke="none">
<path d="M0 1280 l0 -1280 574 0 c539 0 575 1 579 18 4 16 5 16 6 0 1 -17 22
-18 300 -18 256 0 300 2 305 15 3 8 3 22 0 30 -4 8 1 17 9 20 14 6 19 75 5 75
-4 0 -3 13 2 29 4 16 6 32 3 34 -2 3 3 19 11 35 12 23 13 31 3 35 -8 3 -7 10
7 25 11 13 16 30 13 42 -3 11 -2 18 3 15 4 -3 11 6 14 19 3 13 9 32 12 43 5
15 2 14 -14 -5 -12 -12 -23 -19 -25 -14 -3 4 5 18 18 30 42 41 42 31 -9 -262
-14 -83 -26 -154 -26 -158 0 -4 20 -8 44 -8 l44 0 6 44 c4 25 13 47 22 50 8 3
12 11 8 17 -4 8 -9 7 -15 -2 -6 -10 -9 -8 -9 9 0 26 29 31 31 5 3 -46 5 -53
14 -54 6 -1 17 27 26 62 9 35 21 65 27 67 7 2 12 -1 12 -8 0 -6 5 -8 10 -5 5
3 10 1 10 -5 0 -6 4 -8 10 -5 5 3 10 1 10 -4 0 -6 -5 -11 -11 -11 -12 0 -39
-25 -39 -35 0 -4 9 -5 21 -2 16 4 18 3 9 -8 -8 -10 -8 -15 1 -20 8 -6 8 -9 -1
-15 -9 -6 -9 -13 -1 -28 8 -16 7 -21 -4 -26 -8 -3 -15 -10 -15 -16 0 -7 94
-10 280 -10 l280 0 0 687 c0 670 0 686 -19 669 -26 -23 -187 -21 -168 3 10 12
9 13 -9 3 -20 -10 -24 -8 -38 22 -9 19 -16 39 -16 46 0 6 -5 8 -10 5 -6 -4 -8
-11 -5 -16 4 -5 -1 -9 -9 -9 -9 0 -16 7 -16 15 0 8 -7 15 -16 15 -13 0 -14 3
-5 13 6 8 8 17 4 20 -3 4 -1 7 6 7 7 0 9 5 6 10 -3 6 -2 10 3 10 12 0 24 -29
17 -41 -4 -5 1 -6 9 -3 12 5 13 10 3 26 -9 16 -9 22 1 25 6 3 12 12 12 20 0
14 -2 14 -17 1 -24 -19 -39 -17 -57 7 -11 13 -18 16 -23 9 -9 -13 -43 -15 -43
-2 0 11 -28 10 -32 -2 -6 -17 -31 7 -32 31 -2 31 25 60 57 63 28 3 43 -24 24
-43 -8 -8 -6 -11 6 -11 17 0 21 11 17 40 -3 21 -6 23 -40 25 -16 1 -32 4 -36
7 -3 4 -19 2 -36 -2 -28 -9 -30 -8 -24 16 4 16 2 26 -7 30 -8 3 -14 11 -14 19
0 8 4 12 8 9 4 -2 10 2 13 8 5 10 7 10 12 1 3 -8 15 -11 27 -8 15 4 26 -1 35
-16 8 -11 9 -18 3 -14 -6 3 -11 -1 -11 -11 0 -13 3 -14 15 -4 8 7 15 21 15 31
0 11 5 19 10 19 6 0 10 7 10 15 0 8 3 15 7 15 16 0 73 -25 73 -32 0 -12 -23
-52 -35 -60 -11 -8 7 -12 39 -8 11 1 17 -3 14 -12 -3 -7 6 -18 20 -25 28 -15
62 -2 62 23 0 8 -4 13 -9 10 -5 -3 -16 5 -25 19 -16 24 -16 24 9 15 17 -7 25
-6 25 1 0 6 7 8 16 5 14 -5 15 -4 4 9 -7 8 -19 15 -26 15 -24 0 -21 48 4 68
18 14 36 16 28 3 -3 -4 6 -19 21 -32 14 -13 23 -18 18 -10 -5 9 -4 12 3 7 27
-17 11 -53 -21 -47 -5 1 -7 -4 -5 -10 2 -7 27 -14 58 -16 55 -3 83 -13 37 -13
-15 0 -27 -4 -27 -10 0 -5 18 -10 40 -10 38 0 54 13 28 23 -10 4 -10 6 0 6 9
1 12 96 12 441 l0 440 -1280 0 -1280 0 0 -1280z m1135 1068 c11 -2 31 -11 45
-20 13 -10 28 -18 33 -18 4 0 29 -10 55 -21 26 -12 56 -23 67 -24 35 -4 36 -5
31 -14 -6 -10 99 -26 113 -17 5 3 20 2 33 -3 12 -6 17 -10 11 -10 -7 -1 -13
-5 -13 -10 0 -5 9 -7 20 -4 12 3 33 -6 57 -26 21 -17 44 -31 52 -31 7 0 36
-13 63 -30 26 -16 55 -30 63 -30 21 0 126 -112 120 -127 -2 -7 0 -13 5 -13 6
0 10 -5 10 -10 0 -11 -42 12 -78 44 -25 22 -18 25 -86 -41 -28 -28 -46 -31
-22 -4 16 18 16 19 -14 23 -17 3 -33 1 -36 -4 -3 -4 -9 -8 -15 -8 -11 0 -7 22
6 32 6 4 0 8 -13 8 -20 0 -21 3 -12 20 6 11 9 20 8 21 -2 0 -11 2 -20 4 -21 4
-91 72 -101 99 -5 13 -14 17 -31 14 -15 -3 -27 2 -35 14 -8 13 -8 18 0 18 6 0
9 6 6 13 -2 7 -16 11 -31 9 -16 -2 -35 3 -45 12 -10 9 -27 18 -38 20 -11 3
-49 13 -85 24 -63 20 -155 38 -170 34 -5 -1 -8 2 -8 8 0 6 -10 6 -27 -1 -15
-5 -39 -9 -53 -8 -40 2 -52 0 -46 -10 4 -5 -3 -7 -14 -4 -12 3 -20 0 -20 -6 0
-7 -4 -10 -9 -6 -5 3 -12 1 -15 -3 -3 -5 -21 -8 -40 -7 -19 1 -32 -3 -29 -8 3
-5 -3 -6 -14 -3 -13 4 -25 0 -33 -9 -30 -36 -115 -62 -124 -39 -5 13 28 44 47
44 4 0 17 8 28 18 10 11 32 25 47 33 15 8 31 20 36 28 7 11 10 11 17 0 7 -11
11 -11 21 3 21 27 176 42 283 26z m-498 -176 c-9 -9 -20 -29 -26 -42 l-10 -25
0 24 c-1 13 7 32 17 42 22 23 40 24 19 1z m159 -48 c-26 -23 -27 -23 -60 -6
-41 20 -35 29 19 34 63 5 72 -2 41 -28z m-126 16 c-8 -5 -19 -10 -25 -10 -5 0
-3 5 5 10 8 5 20 10 25 10 6 0 3 -5 -5 -10z m837 -15 c9 -24 -1 -27 -15 -5 -8
13 -8 20 -2 20 6 0 13 -7 17 -15z m113 -185 c0 -5 -2 -10 -4 -10 -3 0 -8 5
-11 10 -3 6 -1 10 4 10 6 0 11 -4 11 -10z m306 -19 c-3 -5 9 -23 28 -39 32
-28 36 -42 14 -42 -5 0 -6 5 -3 10 3 6 -1 10 -10 10 -9 0 -14 4 -11 8 3 5 -4
16 -15 25 -21 18 -25 37 -8 37 5 0 8 -4 5 -9z m-81 -22 c4 -6 13 -8 21 -5 8 3
14 -1 14 -9 0 -9 6 -12 15 -9 8 4 15 1 15 -6 0 -6 5 -8 10 -5 15 9 12 -4 -4
-21 -8 -8 -25 -14 -38 -14 -13 0 -30 -5 -38 -10 -13 -9 -13 -10 0 -10 9 0 24
-10 34 -21 14 -17 15 -23 5 -30 -11 -6 -10 -9 4 -15 27 -10 20 -38 -12 -52
-27 -12 -32 -11 -55 9 -13 11 -27 33 -31 47 -3 14 -15 33 -25 42 -11 10 -17
20 -13 23 3 4 -6 18 -20 31 -27 25 -36 56 -17 56 6 0 10 -8 10 -17 0 -12 3
-14 8 -6 17 27 104 44 117 22z m182 -104 c0 -8 -4 -15 -9 -15 -10 0 -11 14 -1
23 9 10 10 9 10 -8z m43 -35 c12 -8 9 -10 -12 -10 -16 0 -28 5 -28 10 0 13 20
13 40 0z m80 -10 c8 -5 11 -10 5 -10 -5 0 -17 5 -25 10 -8 5 -10 10 -5 10 6 0
17 -5 25 -10z m-359 -53 c-13 -13 -26 -3 -16 12 3 6 11 8 17 5 6 -4 6 -10 -1
-17z m482 -12 c-3 -9 -8 -14 -10 -11 -3 3 -2 9 2 15 9 16 15 13 8 -4z m-68
-204 c3 -5 1 -12 -5 -16 -5 -3 -10 -1 -10 5 0 7 -7 9 -16 6 -8 -3 -12 -2 -9 4
8 13 32 13 40 1z m-29 -79 c-4 -13 0 -18 14 -19 11 -1 28 -9 37 -19 16 -16 16
-18 -6 -35 -29 -23 -14 -25 18 -3 22 16 23 16 16 -5 -4 -13 -2 -21 5 -21 6 0
10 -12 8 -27 -2 -16 -8 -28 -15 -28 -6 0 -15 -4 -20 -9 -5 -5 -3 -6 5 -2 6 4
12 2 12 -3 0 -6 12 -11 27 -11 l27 0 -34 -30 c-32 -29 -43 -34 -65 -31 -5 1 1
-7 15 -18 l25 -19 -30 -7 c-17 -4 -36 -8 -42 -10 -7 -3 -18 5 -23 16 -8 14
-17 18 -32 13 -14 -4 -18 -3 -13 5 4 7 2 18 -4 25 -6 8 -7 23 -2 42 5 16 10
25 10 21 1 -4 11 -2 24 5 12 7 29 11 36 9 13 -2 13 -1 0 15 -8 11 -9 15 -1 10
8 -5 12 0 12 14 0 19 -2 19 -22 8 -13 -7 -26 -11 -30 -10 -5 1 -7 -3 -5 -10 1
-6 -5 -13 -15 -15 -19 -5 -35 48 -21 69 4 7 6 20 5 29 -3 17 43 43 59 34 5 -4
9 3 9 14 0 12 5 21 11 21 6 0 8 -8 5 -18z m-46 -7 c-27 -14 -36 -13 -25 4 3 6
16 11 28 11 21 -1 21 -1 -3 -15z m-198 -220 c3 -13 1 -22 -3 -19 -9 5 -13 44
-5 44 2 0 6 -11 8 -25z m394 -33 c-22 -5 -30 3 -21 18 5 8 11 7 22 -2 15 -12
14 -13 -1 -16z m-51 -20 c-3 -3 -11 0 -18 7 -9 10 -8 11 6 5 10 -3 15 -9 12
-12z m38 -52 c-3 -3 -9 3 -14 13 -6 10 -15 14 -22 10 -7 -4 -6 1 2 10 13 16
15 16 26 -5 6 -13 10 -25 8 -28z m-156 -75 c0 -8 -5 -15 -10 -15 -6 0 -7 -3
-3 -7 8 -8 13 -9 42 -12 13 -1 14 -4 5 -15 -9 -10 -8 -15 4 -20 8 -3 15 -11
15 -18 0 -9 -3 -9 -10 2 -6 9 -13 11 -17 5 -5 -5 -17 -15 -29 -21 -18 -11 -20
-9 -19 10 2 11 8 20 14 19 6 -2 11 4 11 12 0 8 -4 15 -9 15 -12 0 -24 37 -16
50 9 15 22 12 22 -5z m38 -5 c-3 -5 -12 -10 -18 -10 -7 0 -6 4 3 10 19 12 23
12 15 0z m-325 -40 c0 -5 -5 -10 -11 -10 -5 0 -7 5 -4 10 3 6 8 10 11 10 2 0
4 -4 4 -10z m383 -8 c-2 -7 4 -12 12 -12 18 0 20 -16 3 -26 -7 -5 -8 -3 -3 6
5 8 3 11 -6 8 -8 -3 -19 2 -26 11 -17 23 -16 33 5 29 9 -2 16 -10 15 -16z
m-406 -97 c-4 -8 -14 -14 -24 -14 -17 1 -17 2 0 6 9 2 17 12 17 20 0 9 3 14 6
10 4 -3 4 -13 1 -22z m433 -85 c-8 -5 -11 -10 -6 -10 11 0 -14 -30 -25 -30 -5
0 -2 11 7 25 9 14 21 25 28 25 6 0 4 -5 -4 -10z m30 -30 c0 -5 -7 -10 -16 -10
-8 0 -12 5 -9 10 3 6 10 10 16 10 5 0 9 -4 9 -10z m28 -8 c-10 -2 -18 -8 -18
-13 0 -5 -5 -9 -10 -9 -6 0 -6 7 2 19 7 12 18 17 27 13 14 -6 14 -7 -1 -10z
m-2061 -14 c-3 -8 -6 -5 -6 6 -1 11 2 17 5 13 3 -3 4 -12 1 -19z m69 -89 c19
-22 19 -22 -3 -8 -13 8 -23 17 -23 21 0 12 6 9 26 -13z m1864 -29 c-8 -15 -8
-20 2 -20 7 -1 0 -8 -17 -17 -16 -9 -33 -21 -37 -27 -5 -8 -11 -7 -20 3 -10
10 -10 12 0 7 6 -4 12 -2 12 3 0 6 6 11 14 11 8 0 17 3 19 8 3 4 -14 8 -36 8
-58 2 -57 2 -57 21 0 15 2 14 15 -3 13 -16 14 -16 9 -1 -7 20 6 22 25 5 9 -9
12 -9 7 -1 -7 13 2 17 44 20 27 2 29 0 20 -17z m127 -31 c-9 -6 -20 -10 -24
-10 -5 0 -13 -5 -20 -11 -15 -12 -49 -2 -56 16 -4 10 10 13 56 13 43 1 56 -2
44 -8z m-1852 -39 c3 -5 -1 -10 -10 -10 -9 0 -13 5 -10 10 3 6 8 10 10 10 2 0
7 -4 10 -10z m1570 -29 c-3 -12 -13 -21 -21 -21 -18 0 -18 9 3 32 20 22 27 17
18 -11z m-1509 4 c19 -14 19 -14 -2 -15 -12 0 -24 7 -28 15 -7 19 5 19 30 0z
m109 -40 l40 -15 -40 4 c-22 3 -41 5 -42 6 -2 0 -3 5 -3 10 0 12 -3 13 45 -5z
m619 -128 c3 3 6 1 6 -5 0 -6 7 -9 15 -6 9 4 15 0 15 -10 0 -9 0 -19 1 -23 0
-4 -4 -9 -9 -11 -6 -2 -8 5 -6 15 4 14 0 19 -15 19 -12 0 -21 -4 -21 -8 0 -4
-8 0 -18 10 -23 21 -18 36 7 22 10 -5 21 -6 25 -3z m-76 -17 c4 -12 3 -13 -10
-3 -8 7 -18 10 -21 6 -4 -3 -7 -1 -7 6 0 17 32 10 38 -9z m-69 -100 c3 -3 7
-27 8 -55 l3 -50 -13 45 c-7 26 -23 62 -35 82 -17 27 -19 37 -10 41 7 2 19 -9
27 -27 7 -17 16 -33 20 -36z m225 55 c3 -8 15 -15 26 -15 14 0 19 -4 14 -12
-4 -6 -3 -8 2 -5 6 3 16 2 24 -4 12 -7 12 -9 -4 -9 -13 0 -17 -5 -13 -20 5
-21 -15 -44 -29 -32 -4 4 -2 -1 5 -10 14 -19 7 -38 -15 -38 -8 0 -14 -7 -14
-15 0 -23 -31 -31 -45 -12 -6 8 -23 19 -37 22 -20 5 -27 3 -31 -12 -3 -10 -5
-3 -6 16 -1 28 2 32 17 26 29 -11 37 -10 37 5 0 8 -11 17 -25 20 -17 4 -21 8
-12 14 7 4 10 11 7 16 -7 11 31 23 45 15 5 -3 10 -2 10 3 0 6 -8 13 -17 17
-16 6 -15 8 7 25 30 24 46 25 54 5z m920 -3 c2 -4 -7 -9 -22 -10 -21 -1 -24 0
-12 8 18 12 27 12 34 2z m-749 -22 c-3 -5 -13 -6 -21 -3 -12 4 -13 8 -3 14 15
9 32 2 24 -11z m-378 -177 c-3 -10 -5 -4 -5 12 0 17 2 24 5 18 2 -7 2 -21 0
-30z"/>
<path d="M2205 1240 c3 -5 8 -10 11 -10 2 0 4 5 4 10 0 6 -5 10 -11 10 -5 0
-7 -4 -4 -10z"/>
<path d="M2123 1213 c-17 -6 -17 -44 -1 -40 14 2 37 27 38 40 0 8 -18 8 -37 0z"/>
<path d="M1370 199 c0 -5 5 -7 10 -4 6 3 10 8 10 11 0 2 -4 4 -10 4 -5 0 -10
-5 -10 -11z"/>
<path d="M2188 1703 c7 -3 16 -2 19 1 4 3 -2 6 -13 5 -11 0 -14 -3 -6 -6z"/>
<path d="M2131 1604 c0 -11 3 -14 6 -6 3 7 2 16 -1 19 -3 4 -6 -2 -5 -13z"/>
<path d="M2281 1599 c-13 -10 -18 -19 -11 -19 7 0 6 -6 -4 -16 -9 -8 -16 -17
-16 -20 0 -10 30 -3 43 11 8 8 17 12 20 8 3 -3 5 7 3 21 -4 36 -7 37 -35 15z"/>
<path d="M2539 1616 c-1 -3 -2 -12 -3 -18 -1 -7 -8 -12 -16 -10 -9 2 -6 -5 7
-17 30 -28 34 -27 31 10 -2 26 -16 51 -19 35z"/>
<path d="M1975 40 c-3 -5 3 -10 15 -10 12 0 18 5 15 10 -3 6 -10 10 -15 10 -5
0 -12 -4 -15 -10z"/>
</g>
</svg>
